<svg width="100" height="100" viewBox="0 0 100 100" fill="none" xmlns="http://www.w3.org/2000/svg">
<path d="M66.666 87.5V79.1667C66.666 74.7464 64.9101 70.5072 61.7845 67.3816C58.6589 64.256 54.4196 62.5 49.9993 62.5H20.8327C16.4124 62.5 12.1732 64.256 9.04757 67.3816C5.92196 70.5072 4.16602 74.7464 4.16602 79.1667V87.5" stroke="black" stroke-width="2" stroke-linecap="round" stroke-linejoin="round"/>
<path d="M35.4167 45.8333C44.6214 45.8333 52.0833 38.3714 52.0833 29.1667C52.0833 19.9619 44.6214 12.5 35.4167 12.5C26.2119 12.5 18.75 19.9619 18.75 29.1667C18.75 38.3714 26.2119 45.8333 35.4167 45.8333Z" stroke="black" stroke-width="2" stroke-linecap="round" stroke-linejoin="round"/>
<path d="M83.334 33.3335V58.3335" stroke="black" stroke-width="2" stroke-linecap="round" stroke-linejoin="round"/>
<path d="M95.834 45.8335H70.834" stroke="black" stroke-width="2" stroke-linecap="round" stroke-linejoin="round"/>
</svg>
